<?xml version="1.0" standalone="no"?>
<!DOCTYPE svg PUBLIC "-//W3C//DTD SVG 20010904//EN"
 "http://www.w3.org/TR/2001/REC-SVG-20010904/DTD/svg10.dtd">
<svg version="1.0" xmlns="http://www.w3.org/2000/svg"
 width="823.000000pt" height="814.000000pt" viewBox="0 0 823.000000 814.000000"
 preserveAspectRatio="xMidYMid meet">

<g transform="translate(0.000000,814.000000) scale(0.100000,-0.100000)"
fill="#000000" stroke="none">
<path d="M4013 7892 c-13 -2 -23 -7 -23 -11 0 -4 -46 -7 -102 -8 -57 0 -121
-5 -143 -11 -22 -6 -83 -18 -135 -26 -260 -41 -542 -113 -758 -195 -29 -11
-56 -20 -60 -21 -14 -4 -57 -22 -87 -35 -16 -8 -55 -24 -85 -35 -62 -24 -232
-106 -270 -131 -14 -9 -70 -42 -125 -73 -100 -57 -197 -121 -267 -177 -20 -16
-41 -29 -45 -29 -5 0 -19 -10 -33 -22 -14 -13 -48 -41 -75 -63 -65 -52 -210
-183 -299 -271 -79 -78 -276 -305 -276 -319 0 -4 -7 -13 -15 -19 -8 -6 -33
-36 -55 -66 -72 -101 -160 -230 -160 -236 0 -3 -11 -20 -24 -37 -63 -85 -158
-255 -283 -509 l-87 -178 -243 0 c-229 0 -243 -1 -253 -19 -11 -21 -12 -1321
-1 -1536 l6 -120 28 -3 c23 -3 26 -6 16 -18 -6 -8 -17 -14 -25 -14 -30 0 -34
-53 -25 -315 1 -11 -1 -76 -2 -145 -4 -135 -2 -150 19 -150 8 0 14 -7 14 -15
0 -8 -7 -15 -15 -15 -20 0 -29 -39 -16 -72 7 -18 7 -47 1 -85 -13 -77 -13
-180 0 -204 10 -18 24 -19 251 -19 241 0 279 -5 279 -36 0 -17 31 -98 62 -161
15 -31 29 -45 54 -53 56 -19 71 9 34 65 -11 17 -20 36 -20 43 0 19 -38 102
-67 144 -18 26 -25 50 -25 85 0 26 -4 53 -10 60 -5 6 -33 15 -63 18 -42 6 -60
3 -84 -11 -29 -17 -31 -17 -52 2 -16 15 -41 20 -115 24 -51 3 -96 9 -100 13
-4 3 -1 14 7 23 11 14 11 18 -6 30 -10 8 -25 14 -32 14 -7 0 -13 7 -13 15 0 8
6 15 14 15 7 0 21 10 29 22 l16 23 19 -24 c18 -23 22 -23 52 -11 27 11 45 11
114 -1 90 -15 258 -14 288 2 13 7 29 6 53 -2 27 -10 37 -10 49 0 12 10 19 10
38 0 34 -19 873 -18 920 1 44 18 68 39 68 62 0 16 -8 18 -64 18 -55 0 -64 -3
-69 -20 -7 -25 -34 -25 -72 0 -28 19 -47 20 -299 20 -223 0 -272 -3 -286 -15
-14 -13 -22 -13 -64 0 -68 21 -427 19 -472 -2 -25 -11 -43 -12 -95 -3 -35 6
-82 14 -104 17 -83 12 -79 -1 -71 230 5 136 3 231 -5 283 -8 58 -8 83 0 99 20
37 25 342 10 642 -8 156 -14 338 -14 404 0 134 13 296 24 307 4 5 1405 9 3114
10 2062 2 3108 6 3109 13 3 20 -88 55 -182 70 -108 17 -410 20 -477 5 -28 -7
-51 -6 -70 1 -39 15 -309 25 -325 12 -7 -6 -29 -8 -48 -6 -54 6 -229 3 -292
-6 -32 -4 -61 -4 -66 1 -4 4 -1081 9 -2392 10 l-2385 3 -3 38 c-2 21 2 45 9
53 10 13 326 15 2498 13 1367 0 2531 0 2586 2 55 1 205 -1 333 -5 196 -7 232
-6 232 6 0 24 -61 62 -96 60 -17 -2 -44 2 -59 8 l-28 11 22 15 c14 10 57 17
130 21 l109 6 16 -30 c16 -31 44 -48 131 -79 48 -18 123 -20 360 -14 22 1 153
0 290 -1 193 -2 249 0 247 9 -1 9 6 7 23 -4 37 -24 159 -28 349 -10 125 11
174 12 189 4 15 -7 72 -9 182 -5 141 6 380 -4 392 -17 2 -2 -2 -14 -9 -26 -11
-19 -10 -24 11 -41 13 -10 27 -19 32 -19 5 0 9 64 9 141 l0 142 -157 -7 c-87
-3 -180 -3 -207 1 -49 8 -50 9 -71 63 -12 30 -33 80 -47 110 -14 30 -29 66
-33 80 -4 14 -15 36 -24 50 -10 14 -31 58 -49 98 -42 99 -99 183 -144 216 -40
28 -58 27 -58 -3 0 -19 100 -220 159 -319 17 -29 31 -57 31 -61 0 -5 10 -29
21 -53 30 -60 69 -159 69 -174 0 -2 -13 -4 -30 -4 -26 0 -31 5 -43 48 -8 26
-29 79 -47 117 -17 39 -37 81 -43 95 -6 14 -19 37 -29 51 -9 14 -48 86 -87
160 -69 132 -70 134 -108 139 -28 4 -33 7 -20 12 24 10 21 39 -8 67 -14 13
-25 29 -25 35 0 7 -14 25 -31 42 -17 16 -39 47 -49 70 -10 22 -30 54 -44 70
-54 58 -72 80 -116 134 -25 30 -58 69 -75 86 -16 17 -54 59 -84 93 -39 44 -64
64 -92 71 -22 6 -39 15 -39 19 0 10 -97 61 -116 61 -17 0 -22 19 -17 56 4 26
-1 36 -46 76 -70 63 -267 209 -321 239 -25 13 -47 26 -50 29 -3 3 -48 31 -100
62 -108 64 -217 117 -304 146 -32 11 -63 27 -68 35 -4 8 -41 27 -81 42 -39 15
-85 34 -102 41 -69 30 -334 112 -435 135 -30 6 -68 15 -84 20 -16 5 -58 9 -93
9 -38 0 -76 6 -93 15 -16 8 -71 26 -122 40 -108 29 -235 33 -338 10 -36 -8
-78 -14 -94 -15 -25 0 -27 2 -15 17 13 15 5 16 -110 9 -69 -4 -131 -12 -138
-18 -8 -6 -35 -8 -65 -6 -28 3 -130 -5 -227 -18 -196 -26 -217 -30 -381 -68
-63 -15 -131 -31 -150 -35 -19 -4 -55 -15 -80 -23 -25 -9 -81 -26 -125 -38
-44 -13 -85 -26 -90 -31 -6 -4 -33 -15 -60 -24 -77 -25 -158 -58 -175 -70 -8
-6 -35 -19 -60 -29 -105 -43 -224 -108 -398 -218 -15 -10 -40 -24 -57 -33 -27
-14 -84 -55 -143 -105 -13 -11 -28 -20 -32 -20 -5 0 -13 -6 -17 -13 -4 -7 -18
-19 -29 -27 -128 -90 -379 -333 -509 -494 -127 -158 -149 -186 -258 -343 -48
-70 -167 -263 -167 -272 0 -4 -13 -26 -29 -47 -15 -22 -44 -73 -64 -114 -20
-41 -43 -86 -51 -100 -7 -14 -24 -50 -37 -80 -13 -30 -27 -57 -30 -60 -3 -3
-11 -15 -18 -27 -11 -22 -51 -33 -51 -14 0 23 211 454 231 471 3 3 9 12 12 20
4 8 21 38 37 65 16 28 33 57 37 65 13 28 136 205 217 310 135 178 281 337 476
521 19 18 201 162 246 194 15 11 43 32 63 47 50 38 54 41 82 57 13 8 75 46
137 84 98 59 342 187 357 187 3 0 44 18 91 40 48 22 98 43 113 47 14 3 31 9
36 13 11 8 94 38 140 50 17 4 91 26 165 48 74 22 162 46 195 52 33 7 94 21
135 32 41 11 122 26 180 33 248 33 325 46 328 55 2 6 9 7 15 3 15 -9 310 -16
385 -8 96 10 100 56 4 62 -26 2 -76 8 -111 15 -48 8 -72 8 -94 0 -16 -6 -35
-8 -41 -4 -11 7 -102 10 -143 4z m602 -342 c6 -5 33 -11 60 -15 28 -4 95 -20
150 -36 55 -15 129 -33 165 -40 36 -6 132 -29 213 -50 82 -22 157 -39 167 -39
10 0 21 -4 24 -9 3 -4 27 -14 53 -21 27 -7 53 -16 58 -20 6 -4 33 -15 60 -25
28 -10 58 -25 68 -33 9 -8 38 -16 65 -18 54 -2 202 -68 202 -89 0 -7 14 -19
30 -27 17 -7 30 -16 30 -20 0 -3 48 -38 108 -77 59 -39 112 -75 119 -81 7 -5
16 -10 22 -10 5 0 11 -3 13 -7 2 -5 21 -21 43 -37 22 -17 49 -38 60 -48 11 -9
49 -40 85 -68 160 -125 413 -375 504 -499 12 -15 35 -43 52 -62 119 -130 128
-142 169 -226 8 -18 26 -40 40 -49 14 -9 25 -21 25 -28 0 -13 51 -115 77 -153
10 -16 25 -41 33 -58 18 -37 28 -45 60 -45 22 -1 23 -2 8 -11 -23 -13 -23 -33
1 -78 32 -60 61 -127 61 -139 0 -22 -32 -12 -61 19 -16 17 -36 56 -46 87 -9
31 -25 66 -35 78 -10 11 -18 24 -18 29 0 16 -55 95 -66 95 -15 0 -24 23 -24
61 0 21 -12 40 -44 71 -25 25 -57 72 -76 113 -34 74 -65 115 -86 115 -8 0 -29
8 -49 17 -19 9 -37 14 -41 11 -14 -15 25 -86 78 -141 31 -32 60 -72 63 -88 4
-16 15 -33 24 -39 10 -5 21 -23 24 -39 3 -16 22 -44 41 -63 22 -22 38 -49 45
-77 10 -45 34 -71 60 -64 14 3 16 -4 13 -43 -3 -35 1 -57 18 -86 36 -65 32
-66 -157 -72 -92 -3 -195 -5 -228 -4 -141 4 -259 3 -390 -4 -92 -5 -132 -5
-117 2 27 11 28 32 3 68 -10 15 -26 40 -35 55 -9 15 -28 32 -42 37 -13 5 -24
16 -24 25 0 9 -18 39 -40 68 -22 29 -48 62 -57 75 -34 45 -94 102 -121 116
-15 8 -34 25 -41 38 -7 12 -52 57 -99 98 -47 41 -93 83 -103 93 -11 9 -23 17
-29 17 -5 0 -10 5 -10 10 0 6 -7 10 -15 10 -7 0 -18 6 -22 13 -7 12 -169 127
-179 127 -2 0 -23 12 -47 27 -45 29 -127 72 -139 73 -4 0 -23 11 -43 24 -20
14 -53 30 -73 37 -20 6 -65 25 -100 41 -59 26 -99 39 -277 89 -70 20 -238 50
-395 70 -119 16 -518 6 -645 -15 -147 -25 -182 -32 -270 -56 -44 -11 -96 -25
-115 -30 -61 -15 -131 -39 -184 -63 -28 -13 -76 -35 -106 -48 -30 -12 -62 -28
-70 -35 -8 -6 -26 -15 -39 -19 -31 -9 -224 -124 -276 -164 -22 -17 -49 -37
-60 -46 -11 -8 -36 -27 -56 -43 -96 -72 -236 -197 -283 -251 -12 -13 -38 -40
-58 -59 -21 -19 -38 -40 -38 -46 0 -6 -17 -28 -39 -51 -41 -43 -114 -138 -171
-222 l-35 -52 -437 -1 c-241 0 -438 3 -438 7 0 11 122 258 130 263 4 3 16 23
28 45 54 108 182 299 290 434 29 36 67 84 85 106 42 53 294 304 334 333 18 13
51 41 74 63 23 21 43 39 46 39 2 0 36 24 76 54 40 29 87 61 105 70 17 9 32 21
32 26 0 6 4 10 9 10 5 0 45 22 88 48 81 51 418 222 435 222 5 0 24 6 41 14 76
33 220 81 482 161 50 15 101 34 114 43 15 9 55 16 105 17 45 2 115 8 156 14
129 19 489 25 685 11 99 -7 227 -14 284 -16 83 -3 114 -9 155 -28 28 -12 92
-35 141 -50 50 -15 115 -36 145 -46 30 -10 82 -26 115 -35 61 -17 146 -47 200
-70 17 -7 41 -16 55 -20 27 -8 130 -58 275 -133 78 -40 198 -113 230 -140 6
-5 34 -25 63 -45 150 -106 311 -246 494 -431 111 -112 181 -166 214 -166 31 0
30 17 -4 56 -15 18 -45 54 -67 80 -90 109 -304 313 -470 445 -61 49 -272 193
-330 225 -11 6 -45 25 -75 43 -30 18 -84 46 -120 62 -36 17 -92 43 -125 58
-133 63 -416 163 -525 185 -30 6 -256 56 -286 63 -12 3 -30 0 -41 -5 -14 -8
-35 -5 -78 9 -33 11 -73 22 -90 25 -160 29 -218 34 -430 34 -235 0 -348 -12
-464 -46 -31 -9 -78 -18 -106 -19 -27 -2 -79 -9 -115 -18 -36 -8 -105 -24
-155 -36 -49 -11 -121 -30 -160 -41 -38 -12 -93 -28 -121 -35 -46 -13 -142
-52 -184 -74 -9 -5 -30 -12 -47 -15 -17 -4 -37 -14 -44 -22 -6 -8 -18 -14 -27
-14 -17 0 -276 -126 -295 -144 -6 -6 -23 -17 -37 -24 -29 -14 -40 -20 -135
-82 -66 -42 -167 -113 -191 -135 -6 -5 -22 -17 -34 -25 -83 -56 -332 -294
-450 -430 -36 -41 -67 -77 -70 -80 -3 -3 -24 -30 -48 -60 -23 -30 -46 -60 -52
-67 -5 -7 -10 -15 -10 -18 0 -6 -11 -21 -40 -53 -16 -19 -91 -131 -152 -230
-21 -33 -38 -67 -38 -76 0 -9 -4 -16 -9 -16 -11 0 -20 -17 -110 -194 -54 -108
-67 -126 -87 -126 -21 0 -23 2 -13 26 21 56 183 368 199 384 3 3 16 25 29 50
54 98 273 407 317 445 6 6 36 39 66 75 61 73 272 282 333 330 22 17 42 35 45
39 3 4 30 24 60 46 30 22 57 42 60 46 22 29 429 279 454 279 8 0 17 4 21 9 7
12 76 45 235 111 69 28 134 56 145 60 25 12 103 40 130 47 11 3 70 20 130 38
61 18 146 41 190 50 44 10 93 24 109 32 29 15 351 65 416 64 19 0 60 1 90 2
113 4 386 1 422 -5 26 -4 41 -1 49 8 12 14 83 10 104 -6z m-178 -1030 c173
-12 345 -42 448 -79 28 -10 77 -26 110 -35 33 -10 93 -33 132 -52 40 -19 77
-34 82 -34 25 0 273 -139 341 -190 19 -15 43 -29 52 -33 24 -8 193 -139 301
-231 49 -42 93 -76 98 -76 5 0 16 -17 24 -37 8 -20 33 -53 54 -72 21 -20 51
-54 67 -76 16 -22 31 -42 35 -45 3 -3 19 -25 36 -50 17 -25 46 -60 63 -78 18
-18 31 -34 29 -37 -3 -2 -24 -7 -47 -11 -35 -5 -43 -4 -48 12 -14 42 -29 74
-35 74 -3 0 -21 21 -39 48 -64 89 -260 301 -350 377 -167 141 -280 218 -460
312 -112 59 -308 141 -362 152 -24 5 -69 18 -100 30 -126 46 -400 81 -637 81
-256 0 -500 -30 -666 -82 -163 -50 -219 -68 -240 -77 -11 -5 -40 -18 -65 -28
-99 -43 -248 -120 -280 -147 -8 -6 -27 -18 -42 -26 -15 -7 -37 -21 -47 -32
-11 -10 -23 -18 -26 -18 -8 0 -66 -43 -116 -85 -107 -89 -129 -108 -184 -162
-99 -96 -177 -183 -249 -276 -64 -83 -105 -117 -140 -117 -12 0 -6 15 21 53
21 28 44 58 51 66 8 8 24 30 37 50 73 114 412 431 552 517 123 75 229 136 292
168 92 46 282 121 347 136 27 7 74 20 104 30 52 17 89 26 206 49 29 6 101 15
160 21 211 20 310 22 491 10z m-137 -290 c4 -3 4 -45 0 -95 -5 -49 -14 -218
-20 -375 -6 -157 -14 -297 -17 -312 -5 -26 -9 -28 -57 -28 -50 0 -52 1 -63 33
-7 18 -12 100 -13 187 0 85 -5 238 -10 340 -13 260 -14 248 13 253 29 6 156 4
167 -3z m-462 -38 c7 -5 15 -24 17 -43 29 -205 59 -408 72 -469 8 -41 19 -102
24 -135 5 -33 14 -73 19 -89 6 -16 10 -31 10 -33 0 -2 -32 -3 -71 -1 l-72 3
-14 45 c-7 25 -18 65 -23 90 -19 87 -76 268 -89 284 -7 9 -14 44 -15 79 -1 34
-6 69 -11 77 -16 25 -44 113 -45 137 0 15 7 24 23 28 12 3 49 11 82 19 75 17
77 17 93 8z m846 -6 c38 -8 73 -19 78 -24 11 -11 -2 -69 -44 -202 -17 -52 -34
-111 -39 -130 -4 -19 -19 -80 -33 -135 -14 -55 -26 -111 -26 -123 0 -13 -6
-38 -14 -55 -8 -18 -18 -45 -23 -62 -9 -29 -12 -30 -71 -33 l-62 -3 0 38 c0
21 7 76 16 123 8 47 19 115 23 151 5 37 11 71 14 76 4 6 14 66 22 134 9 68 23
154 31 192 18 77 16 76 128 53z m445 -150 c35 -17 65 -36 68 -42 2 -7 -5 -29
-16 -50 -12 -21 -21 -43 -21 -49 0 -6 -18 -41 -39 -78 -22 -37 -43 -77 -46
-89 -4 -13 -14 -30 -21 -39 -8 -9 -42 -72 -77 -140 l-62 -124 -77 -3 c-89 -3
-87 -14 -29 110 17 36 31 69 31 73 0 6 22 65 125 330 23 61 45 118 49 128 7
22 23 18 115 -27z m-1698 -66 c21 -52 46 -117 55 -144 9 -26 23 -60 30 -75 8
-14 14 -31 14 -37 0 -6 7 -17 15 -24 8 -7 15 -21 15 -31 0 -10 15 -56 34 -101
18 -46 36 -95 40 -110 l6 -28 -67 0 c-63 1 -71 3 -106 35 -22 18 -36 38 -33
44 4 6 -2 31 -14 55 -11 25 -20 48 -20 51 0 12 -40 94 -49 99 -5 3 -12 18 -15
32 -4 14 -34 70 -66 124 -33 54 -60 105 -60 113 0 8 29 28 68 47 37 17 74 36
82 40 8 5 19 8 23 7 5 -2 26 -45 48 -97z m2053 -134 c17 -13 47 -37 66 -54
l35 -31 -19 -35 c-10 -19 -52 -67 -92 -106 -41 -39 -83 -88 -93 -108 -29 -57
-65 -85 -106 -84 -19 1 -45 -2 -57 -7 -24 -9 -68 5 -68 21 0 5 17 34 38 65 40
60 39 60 92 143 19 30 38 60 42 65 25 32 78 116 78 123 0 13 23 32 39 32 8 0
28 -11 45 -24z m-2469 -28 c17 -23 45 -64 64 -92 18 -28 36 -53 40 -56 12 -10
51 -69 51 -78 0 -4 22 -42 50 -83 l49 -74 -67 -3 c-36 -2 -76 -1 -87 2 -23 7
-89 67 -125 116 -44 60 -89 114 -120 146 -39 41 -38 59 8 88 20 13 48 35 61
50 14 14 29 26 35 26 6 -1 25 -19 41 -42z m2814 -279 c110 -87 96 -107 -77
-111 l-127 -3 -3 -27 c-4 -31 -28 -42 -83 -36 -25 2 -35 9 -39 25 -3 13 -12
31 -21 42 -10 10 -20 28 -23 39 -11 34 40 15 78 -29 31 -37 66 -52 66 -29 0
11 160 170 171 170 3 0 30 -18 58 -41z m-3142 5 c39 -30 80 -72 94 -96 9 -17
1 -18 -116 -18 -103 0 -125 3 -125 15 0 13 96 125 108 125 3 0 20 -12 39 -26z
m5508 -204 c-3 -5 -10 -10 -16 -10 -5 0 -9 5 -9 10 0 6 7 10 16 10 8 0 12 -4
9 -10z"/>
<path d="M4515 7858 c7 -19 83 -57 146 -73 30 -8 90 -15 134 -15 48 0 91 -6
106 -14 31 -16 99 -33 229 -56 79 -15 323 -93 435 -140 17 -7 50 -21 75 -30
25 -10 79 -31 120 -48 41 -16 98 -37 127 -46 86 -27 153 -17 125 17 -19 22
-274 140 -407 188 -230 82 -293 102 -385 124 -58 14 -132 33 -165 41 -142 36
-278 56 -407 60 -109 3 -136 2 -133 -8z"/>
<path d="M6010 7391 c-12 -8 -12 -13 4 -30 11 -12 24 -21 30 -21 5 0 56 -29
113 -65 56 -36 105 -65 109 -65 6 0 117 -75 149 -102 11 -9 45 -35 75 -57 87
-64 101 -75 175 -145 49 -46 78 -65 97 -66 15 0 34 -7 42 -16 9 -8 24 -14 33
-12 23 4 29 36 10 44 -9 3 -55 45 -104 94 -116 116 -188 177 -243 205 -25 13
-69 46 -98 73 -29 28 -76 64 -105 80 -113 63 -254 104 -287 83z"/>
<path d="M6882 6778 c2 -13 11 -24 21 -26 22 -4 35 27 16 39 -25 16 -41 10
-37 -13z"/>
<path d="M6903 6713 c-6 -16 28 -53 51 -53 10 0 41 -44 58 -82 4 -9 16 -27 27
-40 10 -13 36 -43 56 -68 20 -25 69 -79 109 -120 59 -61 116 -148 116 -175 0
-13 64 -85 80 -90 10 -3 29 -1 44 5 26 9 26 11 12 38 -31 60 -96 150 -129 179
-19 16 -37 41 -40 54 -3 13 -33 55 -67 92 -33 37 -60 74 -60 81 0 7 -18 21
-40 32 -27 13 -40 26 -40 39 0 27 -65 90 -112 110 -47 19 -57 19 -65 -2z"/>
<path d="M6600 5134 c-41 -9 -44 -20 -14 -58 l29 -36 490 4 c270 2 497 4 505
4 8 1 50 -1 93 -4 56 -4 91 -1 124 10 56 19 54 19 50 4 -1 -10 26 -13 108 -14
61 -1 137 -6 169 -13 33 -6 63 -11 68 -11 4 0 8 23 8 50 0 45 -3 52 -26 60
-38 15 -138 12 -206 -6 -54 -14 -62 -14 -77 0 -15 14 -63 16 -349 16 -196 0
-333 -4 -337 -9 -3 -6 -17 -6 -35 1 -16 5 -56 7 -87 4 -81 -9 -96 -9 -303 -3
-102 3 -196 3 -210 1z"/>
<path d="M4770 4953 c-36 -7 -57 -29 -76 -82 -24 -64 -30 -68 -38 -22 -3 22
-18 53 -32 70 -36 43 -94 43 -152 1 -23 -17 -42 -35 -42 -41 0 -7 -9 0 -21 15
-11 14 -27 26 -35 26 -8 0 -17 7 -20 15 -9 22 -96 20 -142 -4 -21 -11 -57 -40
-80 -65 -40 -43 -42 -44 -42 -20 0 62 -45 103 -113 104 -53 0 -90 -16 -125
-53 l-23 -25 -25 25 c-13 13 -40 31 -59 39 -41 17 -139 18 -185 2 -25 -8 -44
-8 -81 1 -62 16 -78 7 -126 -70 l-37 -61 -12 47 c-18 67 -47 95 -101 95 -46 0
-90 -18 -112 -44 -12 -14 -17 -13 -48 14 -48 43 -87 40 -138 -9 -22 -21 -44
-45 -50 -54 -68 -103 -90 -125 -127 -129 -21 -2 -38 -3 -38 -3 0 1 9 20 20 43
29 60 27 126 -6 159 -23 23 -32 25 -82 21 -71 -5 -133 -44 -188 -119 -81 -111
-109 -270 -61 -353 47 -83 133 -108 220 -63 36 19 49 21 55 12 4 -7 22 -22 41
-33 l34 -21 42 92 c61 136 64 141 65 91 0 -65 18 -104 55 -120 17 -7 42 -10
55 -7 19 5 21 3 15 -16 -6 -20 -3 -21 45 -21 62 0 87 21 129 110 l29 60 11
-45 c14 -55 46 -80 91 -70 18 4 30 13 31 23 0 9 6 2 13 -17 6 -18 23 -39 36
-47 29 -15 110 -19 110 -4 0 6 9 6 26 0 54 -21 72 -14 84 33 41 155 50 177 78
183 15 3 40 10 56 15 16 5 30 9 31 9 1 0 -4 -20 -13 -45 -52 -160 133 -267
274 -158 l47 35 21 -26 c24 -30 83 -56 124 -56 36 0 121 42 155 78 14 15 40
52 56 82 29 53 41 57 22 8 -5 -13 -18 -56 -29 -95 l-20 -73 43 0 c64 0 90 27
124 129 l28 84 8 -59 c9 -74 26 -117 56 -138 30 -20 99 -22 99 -2 0 11 9 9 39
-7 22 -12 41 -20 43 -17 2 3 26 55 53 115 l50 110 5 -67 c7 -91 33 -116 116
-110 11 1 35 16 52 33 32 31 32 31 32 8 1 -47 45 -79 109 -79 l40 0 -6 35 c-7
40 3 84 59 263 36 116 44 132 63 132 21 0 20 -2 -13 -69 -84 -168 -37 -340 97
-358 82 -11 199 70 247 172 65 138 53 332 -21 351 -14 3 -25 12 -25 20 0 22
-93 18 -141 -7 -39 -19 -41 -20 -54 -2 -18 25 -266 33 -311 10 -25 -13 -32
-13 -49 -1 -10 8 -34 14 -52 14 -38 0 -75 -33 -159 -145 -47 -63 -61 -75 -85
-75 -34 0 -34 4 12 137 16 45 29 84 29 87 0 7 -41 6 -80 -1z m-2099 -51 c28
-24 28 -75 0 -131 -21 -41 -41 -54 -66 -45 -21 8 -19 17 10 60 27 40 41 81 31
91 -13 13 -77 -28 -107 -69 -115 -157 -114 -357 2 -334 40 8 87 44 113 88 15
26 26 34 35 28 11 -6 10 -14 -7 -41 -63 -102 -156 -143 -232 -104 -131 68 -46
377 125 456 51 23 67 24 96 1z m333 5 c16 -12 16 -15 -3 -58 -28 -62 -71 -244
-71 -296 0 -58 21 -56 56 3 19 33 30 42 38 34 16 -16 -30 -98 -65 -116 -36
-18 -48 -18 -71 3 -14 12 -18 31 -18 83 l0 68 -31 4 c-30 5 -32 2 -81 -96 -28
-56 -52 -103 -54 -105 -8 -9 -34 23 -34 43 0 11 18 53 39 93 l38 72 -39 3
c-38 3 -38 3 -23 26 12 16 26 22 55 22 37 0 41 4 110 95 64 86 112 135 129
135 4 0 15 -6 25 -13z m237 -6 c22 -18 24 -28 29 -137 l5 -117 18 39 c46 99
123 215 145 221 34 8 37 -2 19 -60 -35 -115 -70 -339 -60 -390 5 -26 3 -28
-18 -25 -51 7 -57 74 -24 238 8 36 12 66 11 68 -4 3 -94 -203 -102 -233 -9
-34 -41 -33 -55 3 -7 17 -8 72 -5 147 7 138 11 141 -74 -60 -50 -118 -81 -165
-107 -165 -7 0 -13 2 -13 5 0 3 43 100 95 216 52 115 95 212 95 215 0 2 -9 4
-20 4 -24 0 -50 -47 -50 -90 0 -33 -11 -38 -34 -14 -37 36 -5 112 58 140 42
18 60 17 87 -5z m471 9 c20 -6 50 -26 67 -46 76 -86 4 -190 -146 -210 l-51 -6
-28 -99 c-34 -124 -36 -126 -68 -111 -14 6 -26 18 -26 26 0 18 108 332 127
369 18 36 13 41 -21 26 -22 -11 -29 -10 -43 4 -19 19 -20 18 59 42 53 17 83
18 130 5z m312 -11 c19 -15 26 -30 26 -55 0 -51 -25 -94 -54 -94 -34 0 -37 20
-9 54 31 37 27 70 -8 74 -41 5 -64 -30 -64 -98 0 -43 5 -63 19 -79 12 -13 15
-21 7 -21 -29 0 -82 -34 -101 -65 -39 -63 -18 -145 37 -145 46 0 113 51 142
108 7 12 16 20 20 18 5 -3 11 15 15 40 20 147 183 315 269 277 19 -8 16 -12
-26 -32 -56 -27 -106 -85 -144 -167 -37 -79 -40 -191 -6 -225 50 -50 139 13
184 130 25 64 33 221 12 228 -6 2 -24 -23 -40 -56 -29 -62 -42 -71 -63 -46
-35 43 63 158 120 140 54 -17 58 -189 6 -300 -42 -89 -127 -155 -202 -155 -44
0 -101 51 -110 98 l-6 31 -32 -42 c-59 -77 -148 -107 -216 -72 -90 47 -71 184
34 240 26 14 34 24 29 35 -4 8 -8 38 -11 65 -4 58 19 98 72 121 44 19 69 17
100 -7z m562 7 c27 -19 40 -68 55 -199 l12 -108 42 147 c27 94 49 152 61 161
40 29 42 13 8 -92 -37 -116 -84 -318 -84 -359 0 -19 -5 -26 -20 -26 -33 0 -47
39 -70 190 -12 80 -23 146 -24 147 -2 2 -17 -50 -35 -115 -43 -153 -74 -222
-100 -222 -17 0 -19 4 -11 28 22 68 120 399 120 405 0 4 -4 7 -8 7 -14 0 -41
-56 -44 -89 -4 -52 -52 -34 -50 19 1 35 28 71 77 101 36 23 44 23 71 5z m492
-1 c20 -15 20 -18 8 -38 -42 -65 -97 -357 -67 -357 6 0 26 20 43 45 30 42 48
50 48 21 0 -19 -56 -93 -81 -106 -55 -30 -98 28 -84 116 6 39 4 44 -14 44 -10
0 -26 2 -33 5 -10 4 -29 -25 -63 -97 -27 -57 -49 -104 -50 -106 -1 -1 -10 0
-19 4 -25 10 -19 58 16 127 18 34 34 65 36 70 2 4 -12 7 -32 7 -20 0 -36 4
-36 9 0 21 34 41 70 41 36 0 41 4 86 68 49 68 132 162 143 162 4 0 17 -7 29
-15z m376 -7 c19 -10 19 -11 0 -21 -10 -7 -43 -14 -73 -17 l-54 -5 -34 -100
c-38 -112 -83 -280 -83 -307 0 -22 -33 -24 -50 -3 -24 29 -1 114 99 362 l21
53 -48 -6 c-26 -2 -62 -7 -79 -9 -65 -8 -24 52 45 66 47 10 231 0 256 -13z
m183 10 c4 -7 17 -18 28 -24 36 -20 46 -53 42 -144 -2 -66 -9 -98 -31 -145
-59 -130 -170 -195 -255 -150 -44 22 -64 75 -59 159 5 87 38 164 100 232 62
67 154 105 175 72z m-2593 -90 c-4 -25 1 -43 20 -71 l26 -38 -20 -46 -20 -46
-24 22 c-23 22 -25 22 -35 4 -8 -14 -10 -15 -11 -3 0 16 48 189 57 203 9 15
12 6 7 -25z m486 -16 c0 -4 -20 -63 -45 -132 -48 -137 -56 -128 -25 26 28 138
28 136 51 124 10 -6 19 -14 19 -18z m1659 -68 c-16 -43 -34 -90 -40 -103 l-10
-24 -30 29 c-25 24 -31 26 -39 14 -5 -8 -10 -19 -10 -24 0 -5 -2 -7 -5 -5 -6
7 35 162 46 174 7 7 105 24 116 20 1 -1 -11 -37 -28 -81z m-2594 -44 c14 -5
32 -7 40 -4 13 5 13 1 -1 -31 -12 -30 -13 -39 -3 -46 9 -5 0 -20 -33 -53 -77
-78 -119 -57 -104 50 3 25 16 67 28 95 l21 51 14 -26 c8 -15 25 -31 38 -36z
m1671 -1 c50 -13 50 -17 12 -93 -37 -73 -96 -110 -112 -70 -11 28 -6 90 9 135
28 80 25 76 36 57 6 -10 30 -23 55 -29z m51 19 c-3 -8 -6 -5 -6 6 -1 11 2 17
5 13 3 -3 4 -12 1 -19z m-284 -8 c-6 -24 -16 -25 -32 -6 -10 12 -8 15 11 19
13 2 24 5 25 6 0 0 -1 -8 -4 -19z m426 13 c-1 -17 -28 -77 -28 -67 -2 24 12
74 20 74 5 0 9 -3 8 -7z m-449 -71 c0 -16 -59 -100 -81 -116 -71 -49 -107 28
-41 87 31 28 122 50 122 29z m742 -54 c-7 -7 -12 -8 -12 -2 0 6 3 14 7 17 3 4
9 5 12 2 2 -3 -1 -11 -7 -17z"/>
<path d="M2876 4753 c-42 -65 -43 -68 -24 -76 12 -4 23 -5 26 -2 8 7 51 145
46 145 -2 0 -24 -30 -48 -67z"/>
<path d="M3637 4818 c-14 -35 -29 -80 -35 -100 -10 -38 -10 -38 16 -32 82 19
132 65 132 120 0 23 -7 38 -26 53 -44 35 -59 28 -87 -41z m71 -16 c3 -24 -2
-34 -23 -48 -14 -9 -28 -15 -30 -12 -9 9 29 98 40 95 5 -2 11 -18 13 -35z"/>
<path d="M4950 4749 c-40 -62 -40 -63 -19 -71 12 -5 23 -7 24 -6 7 8 43 133
40 137 -2 2 -22 -25 -45 -60z"/>
<path d="M5595 4878 c-121 -66 -209 -300 -144 -382 62 -78 183 45 211 215 11
67 5 139 -12 139 -12 0 -47 -59 -55 -93 -6 -21 -13 -27 -29 -25 -16 2 -22 11
-24 36 -3 28 4 40 41 78 45 45 48 52 12 32z m-61 -173 c13 -9 37 -17 55 -18
35 -2 35 -9 0 -84 -26 -54 -67 -95 -93 -91 -18 3 -21 11 -24 61 -3 51 20 147
35 147 2 0 14 -7 27 -15z"/>
<path d="M8181 4951 c-19 -12 -23 -1023 -4 -1042 8 -8 9 -18 1 -35 -9 -19 -8
-28 7 -44 19 -21 18 -22 -5 -64 -22 -41 -23 -48 -15 -157 10 -144 11 -221 1
-284 -8 -55 2 -78 42 -90 l22 -6 -2 863 c-3 758 -5 863 -18 865 -8 2 -21 -1
-29 -6z"/>
<path d="M639 4239 c-52 -52 -48 -126 7 -158 42 -25 54 -26 54 -5 0 15 2 15
25 0 32 -21 31 -21 44 14 5 17 15 30 20 30 14 0 14 -1 -7 -52 -11 -24 -38 -99
-61 -167 -37 -109 -41 -128 -30 -153 14 -35 37 -48 83 -48 33 0 36 3 46 43 22
85 19 83 55 29 19 -27 46 -59 61 -71 46 -36 101 -24 128 28 15 27 14 29 -35
77 -28 27 -64 68 -80 90 l-28 42 42 11 c24 5 62 24 85 41 40 29 72 39 72 22 0
-4 -9 -39 -20 -77 -11 -38 -20 -88 -20 -110 0 -48 31 -102 66 -115 36 -14 95
-12 124 4 21 12 27 12 49 -6 22 -16 34 -18 91 -12 36 3 73 11 83 16 9 5 34 43
56 85 l38 76 6 -42 c3 -23 13 -51 23 -62 18 -20 78 -26 89 -9 11 17 20 11 32
-19 16 -42 68 -55 175 -41 45 5 104 10 131 10 27 0 57 5 68 10 14 8 25 7 41
-5 13 -8 38 -15 58 -15 l35 0 30 107 c29 105 31 108 64 117 26 7 36 7 39 -2 2
-7 16 -12 32 -12 l28 0 -24 -57 c-28 -68 -29 -91 -8 -121 14 -20 73 -58 78
-50 1 2 24 53 51 113 l50 110 6 -64 c5 -54 11 -69 34 -89 21 -18 37 -23 62
-20 28 3 32 1 27 -14 -5 -16 1 -18 43 -18 64 0 86 17 127 98 33 65 34 66 40
37 11 -50 30 -80 55 -83 36 -5 69 6 74 26 3 12 5 11 6 -6 0 -13 12 -34 26 -47
19 -20 34 -25 75 -25 27 0 50 4 50 10 0 6 9 6 26 0 60 -23 188 -1 258 45 25
17 26 17 26 -4 0 -22 81 -84 87 -66 2 6 25 55 52 110 47 95 49 98 50 62 2 -80
38 -127 98 -127 49 0 87 33 129 114 l26 49 -38 38 -38 39 -13 -22 c-21 -39
-15 2 16 108 20 68 36 103 53 116 l23 18 -37 35 c-69 64 -114 42 -227 -112
-42 -57 -56 -68 -93 -78 l-44 -11 13 28 c33 65 9 154 -50 184 -43 23 -151 29
-207 12 -32 -10 -56 -11 -81 -4 -58 14 -81 3 -124 -65 l-39 -61 -17 53 c-10
30 -28 62 -41 72 -32 27 -106 19 -152 -17 l-35 -26 -27 25 c-36 34 -71 42
-103 24 -14 -8 -55 -51 -91 -96 l-65 -81 -5 44 c-12 91 -81 140 -195 138 -38
-1 -99 -1 -135 -1 -36 1 -103 0 -150 -1 -47 0 -114 -1 -149 -2 -35 0 -72 -5
-82 -10 -9 -6 -35 -38 -56 -72 l-38 -63 -6 46 c-4 25 -13 55 -20 67 -29 47
-115 54 -169 14 -26 -19 -26 -19 -53 4 -64 55 -110 16 -151 -132 -16 -55 -37
-129 -47 -166 -11 -37 -30 -80 -44 -95 l-24 -28 -1 26 c0 15 14 73 31 130 41
137 46 187 25 232 -30 62 -118 75 -186 27 -28 -20 -33 -20 -48 -7 -40 34 -126
46 -207 27 -21 -5 -44 -5 -50 -1 -5 5 -36 9 -68 9 -45 0 -63 -4 -78 -19z m66
-28 c3 -5 -6 -30 -19 -54 -17 -34 -27 -42 -35 -34 -16 16 -14 49 5 75 16 23
39 29 49 13z m71 -5 c5 -13 11 -13 46 0 83 29 186 12 223 -37 l18 -24 37 38
c31 31 45 37 78 37 31 0 45 -5 56 -22 24 -33 19 -80 -19 -217 -39 -138 -41
-159 -22 -186 21 -28 62 -12 92 35 14 22 41 99 60 172 44 162 67 218 92 218
37 0 41 -18 17 -78 -34 -85 -72 -222 -80 -290 -6 -53 -4 -61 16 -80 27 -25 19
-42 -21 -42 -22 0 -34 8 -48 30 -18 30 -18 30 -36 10 -25 -27 -80 -41 -113
-29 -61 23 -66 77 -21 234 17 60 32 129 33 154 1 39 -2 46 -20 49 -25 4 -44
-33 -44 -85 0 -33 -2 -35 -26 -30 -21 4 -33 -2 -56 -29 -30 -33 -103 -64 -154
-64 -23 0 -23 -1 9 -57 18 -31 56 -81 85 -111 56 -58 61 -82 16 -82 -34 0 -74
43 -124 133 -29 52 -39 65 -43 51 -39 -135 -49 -164 -56 -169 -5 -2 -19 4 -32
14 l-24 19 44 129 c24 70 59 163 77 206 18 42 30 77 28 77 -3 0 -19 -7 -35
-16 -25 -12 -33 -13 -46 -3 -13 11 -18 10 -29 -6 -8 -10 -14 -25 -14 -33 0
-12 -3 -12 -15 -2 -19 16 -19 50 1 78 17 25 42 29 50 8z m901 -13 c15 -22 18
-48 17 -140 l0 -114 51 98 c58 113 95 171 113 177 21 9 44 -5 37 -23 -32 -80
-78 -334 -73 -405 3 -46 1 -51 -17 -48 -11 2 -26 9 -32 14 -17 14 -16 99 2
194 8 43 13 79 11 81 -3 4 -57 -111 -82 -177 -24 -64 -37 -76 -59 -54 -15 15
-17 34 -13 155 2 76 3 137 2 136 -1 -1 -22 -53 -48 -114 -63 -155 -92 -210
-121 -229 -14 -9 -27 -15 -30 -13 -2 3 41 103 95 224 55 121 97 221 95 223 -2
2 -13 1 -25 -3 -24 -8 -40 -42 -40 -86 0 -40 -34 -40 -48 -1 -21 60 43 132
115 132 24 0 37 -7 50 -27z m506 21 c26 -4 44 -10 42 -14 -3 -4 12 -2 33 6 49
17 136 17 170 0 48 -25 77 -64 77 -105 0 -74 -61 -122 -175 -138 l-53 -8 -29
-105 c-16 -58 -32 -108 -36 -111 -15 -14 -52 10 -52 34 0 25 83 277 119 360
23 52 22 53 -18 32 -24 -12 -31 -12 -40 -1 -8 9 -27 12 -64 8 -28 -2 -54 -6
-55 -8 -2 -1 -17 -68 -33 -148 -16 -81 -35 -162 -43 -181 l-15 -34 50 -7 c27
-4 52 -11 55 -16 11 -17 -63 -36 -159 -40 -86 -3 -97 -1 -97 14 0 23 38 48 72
48 24 0 29 6 41 48 25 84 80 313 75 317 -2 2 -29 0 -61 -4 -51 -7 -57 -6 -57
10 0 42 116 61 253 43z m586 -8 c10 -12 9 -20 -4 -39 -9 -14 -29 -77 -45 -142
-49 -191 -35 -262 29 -158 23 37 31 44 36 31 9 -22 -21 -84 -53 -108 -33 -26
-78 -26 -92 0 -6 11 -12 48 -13 82 -2 62 -2 63 -33 66 -30 3 -32 0 -80 -101
-42 -90 -51 -104 -66 -96 -27 15 -22 51 21 133 l39 75 -42 3 -41 3 23 23 c15
15 34 22 60 22 34 1 41 6 84 68 97 136 147 175 177 138z m228 6 c23 -14 33
-64 33 -160 l1 -97 21 40 c46 89 120 206 137 214 34 19 45 -2 28 -55 -28 -85
-58 -256 -60 -336 -2 -74 -3 -78 -25 -78 -45 0 -51 79 -18 239 7 34 10 58 6
54 -11 -12 -100 -218 -100 -230 0 -15 -24 -23 -41 -12 -11 7 -14 37 -12 150 1
78 1 140 -1 138 -2 -2 -27 -60 -55 -129 -62 -150 -94 -206 -121 -213 -11 -3
-20 -2 -20 3 0 4 41 97 90 206 105 232 106 234 87 234 -24 0 -48 -36 -54 -79
-6 -41 -19 -51 -41 -29 -13 13 -16 56 -6 83 17 43 115 80 151 57z m534 -30
c16 -18 29 -44 29 -58 0 -36 -26 -81 -57 -98 l-27 -14 31 -16 c17 -8 33 -21
35 -28 3 -8 12 -4 26 10 15 15 34 22 60 22 35 0 41 5 82 63 60 84 129 157 150
157 32 0 43 -25 26 -59 -23 -44 -65 -205 -72 -278 -6 -53 -4 -63 9 -63 17 0
53 40 62 71 5 16 10 18 21 9 30 -26 -51 -130 -101 -130 -37 0 -54 29 -57 100
-3 65 -3 65 -34 68 -30 3 -32 1 -79 -102 -46 -100 -50 -105 -67 -89 -26 23
-23 43 22 128 l39 75 -38 0 c-34 0 -38 -3 -34 -19 8 -32 -16 -88 -52 -119 -72
-64 -229 -96 -269 -56 -22 22 -20 44 5 44 19 0 19 1 5 16 -11 10 -14 24 -10
42 6 24 89 256 109 306 7 17 6 17 -22 3 -31 -16 -59 -9 -51 14 8 23 71 39 151
36 75 -2 80 -4 108 -35z m-729 -60 c-3 -30 2 -45 23 -70 l26 -31 -21 -48 -21
-47 -21 22 c-20 20 -22 20 -34 4 -11 -14 -13 -15 -14 -2 0 28 54 210 63 210 1
0 1 -17 -1 -38z m-831 -134 l-36 -141 -39 -14 -39 -13 7 53 c10 78 37 213 46
227 7 11 30 18 91 29 4 0 -9 -63 -30 -141z m245 134 c9 -5 -3 -52 -40 -161
-29 -86 -56 -149 -60 -143 -4 7 -16 12 -28 12 -16 0 -19 5 -15 23 3 12 15 69
26 127 33 163 26 150 69 150 20 0 42 -4 48 -8z m1067 -14 c-3 -6 -23 -61 -44
-122 -22 -61 -39 -103 -39 -93 0 22 39 217 46 228 2 4 13 5 24 2 11 -3 17 -10
13 -15z m-1778 -75 c13 -8 9 -24 -36 -124 -29 -62 -54 -116 -57 -119 -12 -12
9 131 28 195 32 105 31 103 40 78 5 -12 16 -25 25 -30z m1692 -205 c-3 -7 -5
-2 -5 12 0 14 2 19 5 13 2 -7 2 -19 0 -25z"/>
<path d="M897 4123 c-15 -37 -29 -81 -33 -97 -6 -27 -5 -29 19 -22 73 18 127
65 127 111 0 30 -28 63 -61 70 -25 6 -28 3 -52 -62z m73 -8 c0 -21 -47 -71
-57 -62 -2 2 4 24 14 49 18 49 43 56 43 13z"/>
<path d="M2341 4148 c-28 -66 -54 -149 -48 -154 8 -8 80 14 106 32 32 23 53
77 42 106 -10 28 -27 43 -59 52 -19 6 -25 2 -41 -36z m65 -52 c-3 -14 -19 -32
-36 -41 l-30 -16 20 53 c11 29 20 55 20 58 0 2 7 -3 16 -12 11 -11 14 -25 10
-42z"/>
<path d="M2641 4067 c-46 -71 -51 -90 -20 -85 16 2 26 19 44 76 13 39 22 72
20 72 -1 0 -21 -28 -44 -63z"/>
<path d="M3399 4164 c-14 -36 -49 -136 -49 -140 0 -7 67 10 95 24 40 20 54 41
55 78 0 36 -14 51 -58 60 -28 6 -33 3 -43 -22z m61 -38 c0 -22 -31 -56 -51
-56 -4 0 0 18 8 40 18 44 43 54 43 16z"/>
<path d="M3761 4065 c-23 -36 -39 -69 -36 -75 9 -15 45 -12 45 3 0 8 9 40 19
73 11 32 19 60 17 61 -1 1 -21 -27 -45 -62z"/>
<path d="M3321 3924 c-11 -38 -23 -82 -27 -98 l-7 -29 52 6 c96 11 181 78 167
131 -8 33 -32 45 -105 52 l-59 7 -21 -69z m123 16 c14 -5 26 -16 26 -25 0 -18
-63 -61 -104 -71 -28 -7 -28 -6 -21 27 18 82 35 94 99 69z"/>
<path d="M4196 4244 c-55 -20 -100 -57 -120 -97 -22 -48 -20 -70 10 -106 l25
-30 -30 -107 c-36 -125 -38 -147 -11 -174 55 -55 189 -33 284 47 l29 24 29
-36 c39 -47 77 -65 134 -65 87 0 164 55 222 159 l23 40 -41 27 c-22 15 -38 29
-35 32 3 3 -4 16 -16 28 l-22 23 27 13 c53 24 82 122 54 183 -39 87 -192 65
-246 -36 -19 -36 -23 -54 -19 -96 3 -29 2 -53 -3 -53 -4 0 -10 29 -12 65 -3
53 -9 71 -34 102 -17 21 -46 46 -65 55 -41 22 -128 23 -183 2z m181 -44 c47
-28 67 -73 67 -150 -1 -160 -136 -310 -280 -310 -91 0 -92 22 -13 265 44 137
61 168 92 163 28 -4 28 -4 -32 -178 -27 -80 -53 -163 -57 -184 l-7 -39 34 7
c107 21 199 154 199 286 0 48 -5 64 -25 88 -61 72 -199 28 -199 -63 0 -37 -20
-47 -44 -23 -33 33 11 106 83 139 54 25 140 25 182 -1z m335 3 c38 -34 9 -153
-37 -153 -29 0 -33 31 -8 56 16 17 23 33 21 52 -4 35 -29 39 -64 9 -24 -21
-28 -32 -28 -80 -1 -40 4 -60 18 -76 18 -20 18 -21 0 -27 -67 -21 -114 -75
-114 -132 0 -111 141 -89 202 31 12 24 16 26 26 14 17 -21 -39 -101 -94 -133
-52 -30 -122 -34 -160 -9 -35 22 -57 79 -49 122 7 41 68 111 102 119 20 5 23
11 17 28 -4 11 -8 45 -8 74 -1 49 2 56 36 88 30 27 46 34 80 34 24 0 49 -7 60
-17z m-381 -84 c18 -35 12 -115 -14 -172 -30 -66 -117 -153 -117 -118 0 33 99
311 111 311 4 0 13 -10 20 -21z m359 -172 c0 -29 -59 -104 -95 -121 -36 -17
-39 -17 -51 -2 -22 31 8 97 54 115 15 5 38 12 52 14 14 2 28 5 33 6 4 0 7 -5
7 -12z"/>
<path d="M5015 4238 c-55 -32 -86 -89 -83 -154 1 -47 -1 -53 -43 -95 -81 -81
-88 -179 -17 -248 54 -53 157 -55 228 -6 l40 28 23 -21 c52 -49 155 -57 225
-17 l42 24 25 -25 c17 -17 35 -24 63 -24 l38 0 30 107 30 106 68 19 c107 29
163 80 168 151 1 20 8 39 15 41 17 7 17 12 -13 -107 -47 -188 -40 -173 -84
-186 -47 -14 -65 -39 -75 -100 l-7 -44 38 7 c22 3 84 9 139 13 55 3 109 10
119 16 16 8 18 6 13 -7 -5 -13 2 -16 42 -16 42 0 53 4 73 29 14 16 35 62 48
102 l24 73 12 -70 c13 -80 26 -109 54 -124 21 -12 104 -14 97 -2 -3 4 -2 34 2
67 l7 60 16 -35 c43 -96 141 -127 237 -74 28 15 56 33 62 41 9 10 17 7 39 -17
22 -24 36 -30 70 -30 23 0 50 5 62 11 15 8 31 6 68 -10 52 -23 110 -27 140
-11 14 8 28 5 55 -11 20 -12 37 -20 39 -18 2 2 25 54 52 114 l49 110 5 -55 c3
-30 11 -65 18 -77 24 -44 74 -55 126 -28 25 13 31 13 45 1 34 -29 82 -46 133
-46 146 1 237 124 176 240 l-23 45 30 61 30 60 40 -27 c37 -26 40 -26 43 -8 3
17 5 18 31 4 29 -14 29 -14 45 30 10 24 24 49 32 55 20 17 18 56 -5 79 -15 15
-33 19 -80 19 -54 0 -63 -3 -84 -28 l-23 -27 -32 28 c-26 23 -42 29 -80 29
-127 0 -247 -152 -198 -251 9 -18 15 -33 14 -34 -22 -17 -46 -23 -56 -13 -7 7
-12 8 -12 2 0 -6 -7 -19 -15 -30 -10 -13 -7 9 11 76 31 121 42 147 68 166 21
15 21 16 -18 50 -72 63 -110 44 -230 -116 -26 -36 -52 -65 -57 -64 -5 1 -25 2
-44 3 l-35 1 20 39 c11 22 24 42 30 46 6 4 2 21 -10 45 -19 37 -23 39 -108 59
-135 32 -198 26 -249 -21 -21 -19 -22 -19 -50 -1 -15 10 -34 23 -41 30 -18 17
-75 16 -117 -1 -19 -8 -58 -36 -86 -63 -55 -51 -57 -48 -23 36 8 18 14 35 14
37 0 2 -20 4 -45 4 -64 0 -91 -21 -117 -94 -21 -57 -23 -59 -28 -31 -16 95
-56 134 -122 120 -18 -3 -58 -5 -88 -3 -143 8 -236 3 -263 -15 -25 -16 -29
-16 -51 -2 -51 34 -180 28 -258 -12 -16 -8 -28 -9 -28 -4 0 17 -56 41 -95 41
-47 0 -93 -20 -138 -60 l-37 -32 -9 24 c-25 65 -115 87 -186 46z m133 -34 c38
-26 25 -120 -20 -148 -14 -8 -22 -7 -35 7 -16 16 -16 18 10 45 27 28 35 66 17
77 -19 12 -61 -8 -75 -36 -21 -40 -19 -101 5 -131 21 -28 18 -38 -13 -38 -11
0 -37 -18 -59 -40 -32 -35 -38 -48 -38 -85 0 -26 6 -50 16 -59 36 -37 123 -6
167 60 31 45 68 73 108 81 l33 6 -22 -28 c-32 -40 -30 -99 3 -121 54 -35 146
3 145 60 -1 30 -17 48 -82 90 -32 20 -65 48 -75 62 -53 81 40 214 151 214 76
0 96 -55 55 -151 -15 -34 -27 -49 -38 -47 -23 5 -25 41 -6 98 9 27 13 55 10
61 -19 29 -102 -26 -125 -82 -17 -39 3 -68 74 -108 64 -37 88 -70 90 -122 2
-71 -65 -128 -151 -130 -61 -2 -107 21 -129 62 l-16 31 -36 -35 c-55 -52 -79
-61 -154 -58 -45 2 -89 49 -95 101 -4 37 0 52 23 87 15 22 45 51 66 63 32 18
36 24 28 40 -15 29 -12 99 6 129 33 57 114 79 162 45z m603 -6 c22 -12 39 -26
39 -32 0 -6 11 2 24 18 20 26 31 30 84 34 34 2 96 1 139 -3 l77 -7 -25 -19
c-15 -12 -41 -19 -70 -19 l-46 0 -23 -127 c-21 -118 -36 -181 -55 -225 -6 -14
1 -18 44 -24 32 -4 51 -11 51 -20 0 -20 -63 -33 -167 -36 -89 -3 -93 -2 -87
17 8 28 33 45 66 45 22 0 31 7 39 28 13 31 89 335 86 339 -2 1 -28 -1 -59 -4
l-56 -6 2 -48 c1 -34 -5 -55 -20 -76 -25 -33 -114 -72 -166 -73 -41 0 -36 9
-78 -140 -12 -41 -25 -78 -28 -81 -15 -15 -52 11 -52 34 0 25 71 241 114 347
l24 60 -33 -14 c-29 -13 -35 -13 -46 0 -15 18 -10 22 38 39 60 22 139 19 184
-7z m465 14 c23 -15 36 -56 49 -160 8 -59 15 -116 15 -127 1 -11 19 43 41 120
39 136 58 175 86 175 17 0 16 -8 -2 -61 -27 -76 -77 -271 -89 -349 -11 -65
-15 -75 -32 -72 -32 6 -41 29 -59 150 -33 219 -25 212 -69 61 -45 -158 -69
-209 -96 -209 -22 0 -26 -20 61 264 27 88 49 164 49 170 0 6 -12 -2 -25 -17
-16 -18 -25 -40 -25 -63 0 -27 -4 -34 -20 -34 -25 0 -42 33 -34 65 9 36 78 95
112 95 15 0 32 -4 38 -8z m464 -7 c0 -8 9 -15 21 -15 51 0 65 -165 22 -273
-41 -103 -126 -177 -204 -177 -185 0 -156 327 40 452 51 32 121 39 121 13z
m336 0 c27 -8 61 -15 76 -15 32 0 47 -19 27 -34 -8 -6 -28 -39 -45 -73 l-31
-62 31 -7 30 -6 -23 -19 c-13 -11 -34 -19 -47 -19 -13 0 -28 -9 -34 -20 -6
-11 -31 -44 -55 -74 l-44 -54 44 -11 c24 -6 62 -11 84 -11 46 0 53 -16 21 -45
-26 -23 -69 -22 -136 6 -52 20 -55 21 -90 4 -30 -14 -41 -15 -65 -5 -34 14
-48 52 -28 76 10 13 26 15 69 11 l56 -5 40 54 c54 75 54 78 5 70 -32 -5 -41
-3 -41 8 0 23 41 46 81 46 33 0 38 4 62 49 15 27 27 55 27 63 0 16 -90 48
-136 48 -40 0 -54 -16 -54 -62 0 -25 -5 -38 -13 -38 -22 0 -37 22 -37 55 0 58
38 84 121 85 31 0 78 -7 105 -15z m414 0 c8 -10 9 -19 3 -27 -26 -33 -83 -255
-83 -324 0 -49 24 -44 60 13 17 26 30 44 30 40 0 -4 15 2 33 13 31 19 67 27
67 14 0 -3 -9 -17 -20 -31 -26 -33 -25 -63 1 -97 34 -44 124 -31 148 21 17 38
-5 72 -76 118 -74 48 -99 86 -89 139 8 41 54 100 97 122 42 21 105 18 130 -7
17 -17 20 -29 15 -61 -9 -53 -43 -118 -62 -118 -25 0 -27 27 -5 91 11 34 18
66 15 70 -17 28 -97 -15 -120 -65 -23 -47 -13 -77 38 -106 23 -14 59 -41 80
-61 31 -30 38 -44 38 -75 0 -80 -66 -136 -160 -136 -64 1 -106 23 -121 66
l-12 34 -32 -34 c-33 -34 -66 -43 -95 -24 -10 6 -17 32 -20 82 -5 73 -5 73
-36 76 -30 3 -32 0 -80 -101 -42 -90 -51 -104 -66 -96 -27 15 -22 51 21 133
l39 75 -42 3 -41 3 23 23 c15 15 34 22 60 22 34 0 40 5 84 68 97 137 146 175
178 137z m450 1 c0 -19 -39 -86 -50 -86 -23 0 -21 58 2 88 14 17 48 15 48 -2z
m70 0 c0 -8 -11 -33 -23 -55 -21 -36 -26 -40 -37 -26 -13 16 -7 60 12 82 14
17 48 16 48 -1z m-1018 -66 c46 -13 51 -21 37 -53 -8 -18 -21 -26 -45 -29 -30
-4 -35 -1 -44 27 -10 30 -5 65 9 65 3 0 23 -5 43 -10z m-1585 -48 c-11 -41
-29 -51 -35 -21 -3 14 36 74 43 67 2 -2 -2 -22 -8 -46z m191 22 c1 0 -13 -42
-31 -93 l-34 -93 -17 27 c-18 27 -18 29 2 64 11 20 26 55 33 78 10 37 14 41
28 31 9 -7 17 -13 19 -14z m2097 -18 c-8 -24 -10 -48 -7 -52 4 -5 -1 -2 -10 5
-22 17 -23 35 -2 66 25 38 33 30 19 -19z m-1605 2 c0 -21 9 -41 26 -60 l27
-27 -34 -116 c-19 -63 -37 -115 -40 -115 -4 0 -10 11 -13 25 -5 18 -13 25 -30
25 l-23 0 18 75 c10 42 23 109 30 150 8 51 16 75 25 75 9 0 14 -12 14 -32z
m-831 -112 c8 -10 5 -16 -15 -24 -30 -14 -37 -15 -29 -3 3 6 -5 18 -18 28
l-24 17 31 21 31 21 7 -24 c4 -13 11 -29 17 -36z m1651 54 c10 0 11 -3 4 -8
-19 -12 -34 -49 -34 -81 0 -24 4 -31 20 -31 22 0 26 -10 9 -27 -9 -9 -74 -8
-86 2 -2 1 4 33 12 71 8 38 15 73 15 78 0 4 10 6 23 2 12 -3 29 -6 37 -6z
m-1720 -85 c0 -16 -42 -84 -67 -107 -56 -53 -110 -33 -83 32 19 46 54 65 143
79 4 0 7 -1 7 -4z m1914 -30 c-5 -11 1 -15 24 -15 l30 0 -15 -39 c-13 -35 -18
-38 -47 -36 -17 2 -39 3 -49 4 -15 1 -12 8 15 50 32 48 53 67 42 36z m-1720
-36 c46 -36 30 -69 -34 -69 -35 0 -44 22 -25 61 18 35 24 35 59 8z m2290 -4
c14 -13 26 -28 26 -33 0 -35 -92 -43 -98 -9 -4 19 23 67 37 67 4 0 20 -11 35
-25z"/>
<path d="M5665 4180 c-13 -21 -65 -184 -60 -188 10 -10 85 19 113 43 55 46 50
123 -10 144 -38 13 -35 13 -43 1z m55 -72 c0 -19 -42 -68 -58 -68 -6 0 -1 25
11 55 16 44 23 53 33 44 8 -6 14 -20 14 -31z"/>
<path d="M6581 4142 c-65 -65 -103 -148 -109 -239 -6 -91 10 -123 62 -123 47
0 89 38 125 113 50 102 65 257 26 257 -8 0 -27 -27 -43 -60 -27 -57 -29 -59
-49 -45 -18 13 -20 20 -12 48 5 17 24 47 44 65 22 20 29 32 19 32 -8 0 -36
-21 -63 -48z m50 -152 c10 0 20 6 23 13 3 6 4 -1 1 -18 -16 -88 -97 -188 -135
-165 -20 13 -19 105 3 162 l18 45 36 -18 c21 -11 45 -19 54 -19z"/>
<path d="M6760 3808 c0 -14 30 -22 41 -11 7 7 2 12 -15 15 -14 3 -26 1 -26 -4z"/>
<path d="M7301 4065 c-42 -66 -45 -85 -13 -85 13 0 22 20 38 75 11 41 20 75
18 75 -1 0 -21 -29 -43 -65z"/>
<path d="M4060 3675 c-183 -29 -353 -92 -455 -171 -22 -16 -74 -54 -116 -83
-43 -28 -79 -61 -82 -71 -3 -11 -18 -27 -34 -36 -35 -21 -149 -162 -209 -261
-11 -17 -12 -17 -31 0 -11 9 -24 17 -30 17 -5 0 -20 12 -34 26 -28 30 -80 59
-126 68 -17 4 -37 13 -43 21 -6 7 -30 17 -53 20 -23 4 -53 13 -67 20 -35 18
-155 35 -247 35 -88 0 -283 -32 -338 -56 -70 -30 -149 -86 -207 -146 -60 -61
-67 -72 -57 -90 10 -18 9 -20 -5 -15 -21 8 -46 -2 -46 -18 0 -19 52 -35 73
-23 10 5 15 13 12 19 -10 16 38 9 84 -11 60 -28 81 -25 132 14 50 39 125 61
162 47 38 -15 114 -107 132 -161 18 -55 14 -96 -15 -145 -9 -16 -23 -52 -31
-78 -8 -27 -18 -52 -24 -57 -5 -4 -54 -31 -107 -59 -114 -60 -149 -64 -195
-23 -41 35 -91 129 -96 178 -6 54 -35 54 -54 -1 -7 -21 -21 -48 -31 -60 -10
-11 -25 -36 -34 -55 -20 -45 -66 -100 -83 -100 -25 0 -34 24 -24 70 5 25 12
63 15 85 3 22 12 54 19 70 34 77 35 84 14 98 -26 19 -65 10 -84 -19 -39 -60
-75 -417 -46 -462 5 -8 23 -13 42 -12 19 1 39 2 45 1 6 -1 18 -26 28 -56 9
-30 21 -55 27 -55 5 0 9 -8 9 -18 0 -10 18 -35 39 -56 36 -35 43 -38 78 -32
109 18 141 18 164 2 22 -15 59 -22 59 -11 0 3 -9 25 -21 49 -11 25 -22 51 -23
58 -1 7 -8 24 -15 37 -9 16 -11 41 -7 78 6 51 11 59 63 106 30 29 72 60 92 70
56 28 134 57 155 57 34 0 100 -47 153 -108 48 -55 53 -64 54 -113 1 -55 -17
-146 -32 -163 -5 -6 -9 -19 -9 -29 0 -30 -52 -95 -91 -112 -41 -19 -154 -22
-209 -5 -42 12 -40 12 -40 1 0 -5 20 -31 45 -59 42 -47 75 -112 75 -151 0 -9
14 -29 30 -45 29 -29 32 -29 125 -27 52 1 100 -1 106 -5 23 -14 -17 -24 -95
-24 -56 0 -84 -4 -96 -15 -13 -12 -23 -12 -53 -3 -20 6 -37 17 -37 23 0 21
-34 42 -90 55 -57 13 -187 89 -230 135 -13 14 -29 25 -35 25 -6 0 -29 13 -51
29 -86 64 -134 45 -67 -26 21 -22 55 -61 77 -87 21 -26 57 -60 80 -74 22 -15
43 -29 46 -32 20 -20 134 -60 252 -89 144 -34 364 -19 534 37 89 29 199 95
255 152 27 28 51 50 53 50 2 0 6 -8 9 -17 33 -100 211 -283 357 -366 146 -84
250 -125 430 -173 96 -25 121 -27 290 -27 190 -1 200 1 367 52 91 27 253 121
253 146 0 9 18 19 47 26 36 10 61 27 111 76 35 34 68 63 72 63 12 0 150 192
150 210 0 4 7 14 16 21 9 7 19 22 23 33 7 17 12 15 52 -23 24 -24 72 -55 105
-71 34 -16 64 -36 67 -44 6 -14 56 -40 162 -86 38 -16 90 -22 210 -26 141 -3
212 9 254 45 16 14 41 34 55 44 33 23 33 31 0 45 -25 12 -25 12 -7 43 35 61
183 183 293 243 19 10 51 32 70 47 19 16 41 29 50 28 10 0 11 -2 3 -6 -7 -2
-13 -12 -13 -21 -1 -61 -105 -181 -220 -254 -40 -26 -60 -45 -60 -58 0 -27 44
-27 63 0 8 11 31 22 57 26 74 12 170 86 170 131 0 7 19 32 43 55 46 46 87 123
87 162 0 13 7 29 15 36 17 14 21 95 5 105 -16 10 -11 21 15 33 23 10 25 18 25
64 -1 29 1 73 3 96 4 49 -5 62 -60 88 -44 21 -61 13 -87 -43 -11 -24 -28 -44
-40 -47 -33 -9 -74 -7 -81 4 -7 11 -45 13 -68 4 -15 -5 -12 -44 3 -44 4 0 18
-10 31 -21 13 -12 34 -28 47 -36 26 -18 29 -75 7 -138 -8 -22 -15 -50 -15 -62
0 -13 -4 -23 -9 -23 -7 0 -71 -61 -147 -142 -30 -31 -96 -55 -139 -50 -65 7
-201 122 -175 148 5 5 10 54 12 109 3 88 7 105 30 141 33 51 103 110 143 120
17 4 36 11 42 16 8 7 30 6 64 -2 29 -7 54 -9 59 -4 13 13 1 52 -19 59 -9 3
-34 30 -56 60 -22 30 -48 57 -57 60 -20 7 -23 21 -8 30 14 9 12 37 -7 106 -24
85 -41 93 -196 87 -115 -5 -120 -4 -148 19 -38 32 -65 25 -53 -15 15 -46 9
-134 -13 -192 -15 -39 -18 -61 -12 -73 13 -22 -6 -58 -26 -50 -19 7 -90 -39
-106 -68 -11 -21 -10 -22 22 -15 18 3 62 9 99 12 56 6 68 4 73 -10 4 -9 12
-16 19 -16 7 0 21 -14 30 -30 10 -17 34 -38 54 -46 l36 -15 -7 -102 c-4 -56
-12 -110 -17 -120 -5 -10 -7 -25 -4 -33 8 -20 -31 -92 -53 -99 -10 -3 -24 -16
-31 -29 -7 -15 -24 -26 -44 -29 -17 -3 -44 -9 -59 -13 -42 -10 -103 14 -175
68 -43 33 -73 48 -93 48 -21 0 -28 -4 -23 -12 12 -21 47 -58 55 -58 17 0 98
-61 133 -100 45 -50 57 -80 49 -121 -15 -78 -98 -70 -265 27 -11 7 -25 17 -31
23 -6 6 -19 11 -28 11 -9 0 -33 24 -53 53 -33 47 -37 59 -34 105 3 48 5 53 38
69 19 9 57 16 83 16 53 -1 69 15 49 48 -14 22 -16 125 -3 133 5 3 12 22 16 43
5 27 24 54 75 105 72 73 69 88 -11 48 l-40 -21 -38 28 c-40 29 -121 125 -121
142 0 5 5 11 11 13 8 3 7 19 -1 58 -6 30 -12 65 -12 78 0 12 -4 22 -8 22 -5 0
-23 19 -41 41 -29 37 -31 42 -16 51 12 6 15 16 11 33 -11 46 57 85 86 50 11
-13 10 -25 -8 -68 -12 -29 -22 -62 -22 -75 0 -32 33 -28 51 6 41 82 103 162
123 162 6 0 24 7 41 16 16 8 48 17 70 21 39 5 44 2 87 -41 26 -25 51 -46 57
-46 20 0 12 35 -19 83 -16 26 -30 51 -30 55 0 4 -9 18 -20 32 -26 33 -26 53 0
45 13 -4 34 1 56 14 62 37 155 64 178 52 12 -5 46 -13 76 -17 101 -12 220 -82
220 -129 0 -12 -15 -54 -34 -91 -19 -38 -31 -73 -26 -78 12 -13 54 23 90 77
17 27 38 51 46 54 9 3 34 -8 57 -26 23 -18 57 -38 75 -47 18 -8 32 -22 32 -31
0 -9 14 -31 30 -48 17 -17 38 -53 48 -81 21 -60 53 -104 78 -105 14 -1 12 -3
-6 -8 -38 -10 -35 -36 7 -80 32 -33 42 -38 61 -31 13 6 22 18 22 30 0 31 -28
80 -45 80 -13 0 -13 4 1 26 16 24 16 26 -5 54 -11 16 -21 38 -21 49 0 11 -9
25 -20 31 -11 6 -20 19 -20 28 0 30 -57 91 -80 85 -17 -5 -18 -1 -14 29 6 34
4 35 -49 62 -39 20 -53 33 -50 45 2 10 -10 27 -32 44 -37 29 -52 33 -97 21
-25 -6 -27 -4 -25 22 2 25 -4 32 -58 59 -47 23 -73 30 -120 30 -33 0 -73 6
-90 14 -78 34 -277 20 -395 -28 -81 -33 -192 -94 -210 -116 -7 -8 -17 -15 -22
-15 -5 0 -36 -20 -68 -45 -36 -28 -64 -43 -74 -39 -9 3 -16 9 -16 13 0 10 -60
101 -95 145 -63 79 -216 223 -289 274 -42 28 -80 52 -84 52 -4 0 -34 14 -67
31 -73 38 -108 49 -255 85 -132 32 -312 40 -440 19z m417 -131 c126 -26 251
-95 284 -155 9 -18 -9 -95 -30 -124 -4 -5 -13 -28 -20 -50 -19 -56 -47 -92
-84 -109 -46 -21 -160 -36 -276 -36 l-99 0 -74 50 c-40 27 -74 46 -76 42 -1
-5 11 -38 28 -75 41 -91 39 -129 -14 -263 -24 -62 -47 -125 -50 -140 -8 -34
-69 -88 -111 -98 -16 -4 -47 -20 -67 -37 -20 -16 -40 -29 -43 -29 -3 0 -15 -9
-27 -19 -11 -11 -42 -25 -69 -31 -44 -11 -53 -10 -95 10 -93 46 -210 198 -205
270 6 92 89 281 168 382 48 60 117 111 200 146 77 33 110 29 177 -19 32 -23
60 -38 63 -35 4 3 -6 30 -20 60 -59 120 -14 219 118 259 68 20 226 21 322 1z
m456 -266 c18 -13 34 -25 37 -28 3 -3 21 -17 40 -30 62 -41 109 -93 165 -178
67 -100 80 -131 89 -204 6 -46 13 -61 42 -87 38 -35 43 -51 15 -51 -15 0 -23
-16 -40 -78 -12 -43 -21 -85 -21 -93 0 -8 -21 -31 -47 -52 -44 -36 -51 -38
-93 -32 -29 4 -52 15 -65 30 -23 26 -56 45 -80 45 -8 0 -31 14 -49 31 -19 17
-48 38 -64 47 -47 26 -69 61 -106 169 -59 170 -68 246 -41 348 16 64 37 97 95
148 47 43 77 47 123 15z m-1421 -118 c-1 -25 -9 -70 -18 -100 -14 -51 -24 -77
-75 -188 -10 -23 -19 -50 -20 -60 0 -9 -10 -39 -23 -66 l-22 -50 -28 65 c-15
35 -41 86 -59 113 l-31 49 19 31 c10 17 36 64 57 104 20 41 56 92 78 113 37
36 46 40 83 37 l42 -3 -3 -45z m-752 -10 c80 -25 138 -63 145 -93 7 -29 -36
-133 -70 -169 -36 -37 -91 -50 -199 -46 -85 3 -94 6 -138 38 -60 42 -111 133
-106 187 3 42 54 89 110 104 51 13 186 2 258 -21z m260 -165 c7 -8 17 -15 22
-15 12 0 128 -100 128 -111 0 -4 13 -28 30 -52 77 -115 79 -314 4 -384 l-25
-23 -59 23 c-64 24 -143 91 -184 155 -39 63 -70 176 -63 232 5 44 39 128 57
140 4 3 12 15 19 28 14 26 52 30 71 7z m1143 -457 c29 -20 90 -71 135 -114
l82 -79 -14 -185 c-8 -102 -20 -198 -27 -215 -16 -37 -48 -75 -64 -75 -7 0
-32 -17 -56 -38 -36 -32 -55 -40 -104 -47 -88 -12 -156 -9 -198 9 -105 43
-240 163 -273 241 -16 38 -18 149 -5 207 11 46 98 164 146 198 20 14 42 30 49
36 7 7 47 26 89 44 49 20 77 38 77 47 0 13 10 15 55 11 41 -3 67 -13 108 -40z
m680 0 c29 -12 71 -34 95 -50 24 -15 55 -34 70 -42 15 -8 44 -30 65 -50 21
-20 43 -36 48 -36 12 0 11 -163 -2 -220 -22 -97 -22 -99 -4 -106 10 -4 26 -2
36 4 22 14 49 16 49 3 0 -10 -35 -21 -68 -21 -38 0 -95 -37 -172 -111 -15 -14
-41 -36 -59 -48 -36 -26 -40 -47 -11 -56 19 -6 71 19 110 53 8 7 33 29 54 47
61 53 136 70 136 32 0 -20 -50 -131 -62 -138 -5 -3 -26 -30 -46 -59 -21 -30
-63 -71 -96 -94 -32 -22 -61 -48 -64 -58 -2 -10 -12 -18 -21 -18 -9 0 -27 -9
-41 -20 -14 -11 -29 -20 -34 -20 -5 0 -30 -13 -55 -29 -64 -40 -132 -62 -167
-52 -44 11 -42 41 5 92 22 24 41 49 41 54 0 6 10 17 21 25 12 8 42 32 66 53
24 20 50 37 57 37 6 0 27 15 45 34 65 67 2 90 -84 32 -21 -14 -50 -26 -64 -26
-26 0 -116 42 -214 99 -71 41 -75 55 -65 202 14 208 47 291 152 392 33 31 64
57 70 57 6 1 29 14 51 30 49 36 88 38 158 8z m537 -53 c-23 -25 -60 -34 -60
-16 0 11 48 38 69 40 10 1 7 -7 -9 -24z m-2350 -40 c26 -9 61 -35 91 -67 46
-49 49 -56 49 -105 0 -49 -5 -70 -34 -133 -19 -43 -68 -89 -161 -152 -77 -51
-95 -59 -123 -54 -51 8 -122 46 -160 85 l-35 35 6 86 c5 82 23 150 39 150 4 0
8 8 8 18 1 25 78 107 125 131 49 25 134 27 195 6z m3708 -122 c-10 -2 -26 -2
-35 0 -10 3 -2 5 17 5 19 0 27 -2 18 -5z m-45 -160 c-7 -2 -19 -2 -25 0 -7 3
-2 5 12 5 14 0 19 -2 13 -5z m-1353 -112 c0 -18 -29 -12 -40 8 -7 14 -6 21 2
23 14 5 38 -15 38 -31z m-2157 -34 c-34 -87 -107 -172 -194 -225 -40 -24 -162
-72 -184 -72 -15 0 -21 36 -7 42 4 2 21 21 39 43 41 53 273 225 302 225 4 0
16 9 26 20 27 30 36 14 18 -33z m112 -78 c8 -23 1 -34 -14 -24 -13 8 -15 45
-2 45 5 0 13 -9 16 -21z m370 -34 c79 -51 188 -138 245 -196 73 -76 84 -93
100 -163 8 -38 7 -52 -6 -77 l-16 -31 -76 7 c-162 15 -303 76 -400 175 -72 73
-99 117 -119 193 l-18 67 35 30 c41 35 57 39 135 36 50 -3 71 -10 120 -41z
m2365 -82 c0 -13 -3 -13 -15 -3 -8 7 -15 16 -15 21 0 5 7 6 15 3 8 -4 15 -13
15 -21z m110 -65 c0 -7 3 -23 6 -35 6 -23 6 -23 -117 -23 -68 0 -134 3 -146 6
-45 12 -10 24 70 24 61 0 91 5 117 19 42 22 70 26 70 9z m-1706 -365 c36 -20
-48 -37 -184 -38 -141 0 -177 4 -191 22 -19 23 51 33 206 29 83 -1 159 -7 169
-13z"/>
<path d="M8170 3121 c0 -6 1 -12 2 -13 2 -2 -5 -14 -15 -28 -21 -30 -22 -54
-3 -69 20 -17 16 -126 -6 -147 -13 -13 -20 -14 -38 -4 -33 17 -213 19 -233 1
-14 -11 -29 -11 -84 -1 -76 13 -381 14 -513 1 -47 -4 -98 -4 -115 1 -47 13
-155 10 -152 -4 3 -15 -100 -20 -126 -6 -26 13 -57 0 -68 -29 -7 -20 -5 -33
13 -62 44 -73 42 -73 214 -73 l155 0 29 28 c16 16 30 35 30 43 0 22 40 -18 40
-41 0 -10 -11 -41 -25 -68 -14 -27 -32 -71 -41 -97 -9 -26 -24 -57 -34 -68
-29 -32 -54 -113 -39 -131 25 -30 45 -15 93 71 26 46 45 89 42 94 -3 5 1 11 9
14 25 10 59 87 64 150 1 4 17 7 36 7 33 0 35 -2 35 -34 0 -19 6 -37 13 -40 6
-2 1 -4 -12 -3 -13 1 -26 -5 -30 -13 -10 -20 -44 -86 -102 -200 -27 -52 -49
-98 -49 -102 0 -3 23 -20 50 -37 28 -17 50 -33 50 -36 0 -3 -18 -5 -40 -5 -33
0 -40 3 -40 19 0 11 -6 21 -12 24 -20 7 -48 -12 -48 -31 0 -10 -14 -30 -31
-45 -27 -24 -30 -31 -25 -64 7 -45 3 -52 -47 -77 -54 -28 -107 -89 -107 -125
0 -16 5 -31 11 -33 6 -2 -2 -10 -18 -18 -32 -17 -30 -16 -106 -76 -57 -45
-103 -114 -93 -139 3 -8 29 -16 63 -20 32 -3 76 -11 98 -16 37 -10 41 -9 63
17 14 16 49 57 80 92 82 94 122 149 134 185 6 17 19 40 29 50 11 10 19 26 19
36 0 9 14 27 30 40 31 22 89 106 90 128 0 6 -7 18 -15 26 -13 13 -11 16 16 27
34 15 69 55 69 81 0 9 4 19 9 21 11 4 61 85 61 98 0 16 51 120 72 149 10 13
18 32 18 43 0 37 29 78 55 78 14 0 25 -3 25 -7 0 -21 -57 -169 -67 -176 -7 -4
-15 -24 -19 -43 -4 -20 -13 -38 -20 -41 -8 -3 -14 -11 -14 -18 0 -8 -10 -31
-22 -51 -12 -21 -25 -55 -28 -77 -3 -25 -12 -44 -25 -51 -62 -35 -59 -86 6
-86 25 0 102 119 129 199 11 33 31 72 45 87 13 14 23 30 20 34 -2 4 6 27 19
51 13 24 31 67 41 94 32 88 24 85 229 85 136 1 185 4 199 14 16 12 17 32 15
217 l-3 204 -27 3 c-16 2 -28 -1 -28 -7z m-157 -328 c-7 -2 -19 -2 -25 0 -7 3
-2 5 12 5 14 0 19 -2 13 -5z m76 -29 c2 -2 2 -7 -1 -10 -4 -3 -19 2 -35 11
l-28 16 30 -6 c16 -4 32 -9 34 -11z m-929 -805 c0 -12 -50 -32 -59 -23 -8 8
39 45 50 38 5 -3 9 -10 9 -15z m-87 -56 c-7 -2 -19 -2 -25 0 -7 3 -2 5 12 5
14 0 19 -2 13 -5z"/>
<path d="M6816 3061 c-3 -4 -16 -6 -29 -4 -26 5 -81 -39 -74 -60 4 -14 153
-29 210 -21 21 3 41 12 44 20 7 18 27 18 43 -1 12 -14 15 -14 30 0 24 22 73
19 88 -5 10 -17 23 -20 86 -20 82 0 106 6 106 25 0 12 -62 25 -125 25 -26 0
-31 4 -31 23 1 21 -2 22 -94 22 -90 0 -95 -1 -98 -22 -4 -25 -21 -22 -61 9
-24 19 -86 25 -95 9z"/>
<path d="M7320 3044 c0 -50 87 -65 226 -38 22 4 36 1 48 -11 13 -14 36 -18 99
-19 131 -2 281 6 292 14 6 5 21 10 35 12 20 2 25 9 25 33 l0 30 -148 3 c-122
2 -154 0 -184 -14 -33 -16 -36 -16 -45 -1 -8 15 -31 17 -178 17 l-170 0 0 -26z"/>
<path d="M2049 2879 c-7 -15 -8 -24 -1 -31 15 -15 42 -2 42 21 0 28 -28 34
-41 10z"/>
<path d="M1115 2873 c-84 -7 -94 -32 -24 -60 21 -8 39 -20 39 -27 0 -19 -14
-33 -35 -37 -17 -4 -20 -13 -23 -63 -2 -51 2 -65 28 -104 16 -25 30 -49 30
-54 0 -9 31 -11 54 -2 26 10 18 54 -19 99 -32 40 -33 44 -23 79 8 24 17 36 30
36 10 0 27 9 38 20 25 25 44 22 50 -9 3 -14 8 -25 12 -25 4 0 65 -6 135 -14
71 -7 157 -14 193 -15 62 -2 65 -1 74 26 9 24 7 31 -7 42 -17 13 -17 14 2 20
25 8 28 40 5 49 -29 11 -35 6 -32 -21 3 -27 2 -28 -42 -25 -67 4 -143 29 -157
51 -8 13 -27 21 -55 25 -68 8 -218 13 -273 9z"/>
<path d="M711 2831 c-12 -8 -12 -12 -2 -25 7 -8 22 -18 33 -22 19 -6 19 -7 -4
-31 l-23 -25 27 -19 c15 -11 37 -40 49 -65 13 -24 27 -44 32 -44 5 0 7 -9 4
-20 -3 -11 -1 -23 4 -26 5 -3 9 -16 9 -29 0 -32 30 -51 119 -76 81 -23 119
-22 135 3 8 14 6 21 -9 33 -25 20 -88 52 -140 71 -117 45 -117 45 -35 39 57
-5 80 -3 95 8 18 14 18 17 5 41 -12 24 -12 30 3 55 19 33 8 51 -34 51 -40 0
-59 10 -59 30 0 26 -19 37 -75 44 -27 4 -66 9 -85 11 -19 3 -41 1 -49 -4z"/>
<path d="M1206 2423 c-12 -12 -6 -41 9 -47 8 -3 20 -17 25 -31 5 -14 14 -25
20 -25 5 0 10 -11 10 -24 0 -13 7 -29 15 -36 8 -7 15 -20 15 -29 0 -28 28 -58
76 -81 37 -18 48 -20 54 -9 10 15 -9 56 -39 83 -12 11 -21 28 -21 38 0 12 -9
20 -29 24 -22 5 -29 11 -26 25 5 23 -18 81 -37 96 -18 14 -63 24 -72 16z"/>
<path d="M784 2385 c-11 -27 4 -45 36 -45 30 0 37 11 24 44 -8 20 -53 21 -60
1z"/>
<path d="M925 2370 c-10 -16 21 -75 52 -99 14 -12 38 -21 52 -21 15 0 56 -15
92 -34 87 -45 113 -49 117 -16 2 17 -8 37 -33 64 -19 21 -35 42 -35 47 0 14
-46 40 -87 50 -69 17 -150 22 -158 9z"/>
<path d="M7082 2292 c-16 -26 -35 -64 -41 -85 -7 -21 -32 -56 -56 -78 -76 -70
-93 -144 -26 -116 65 29 106 82 94 125 -4 17 0 21 23 24 20 2 36 16 61 52 34
50 42 93 21 114 -23 23 -46 12 -76 -36z"/>
<path d="M864 2255 c-7 -17 12 -45 31 -45 7 0 18 6 24 14 9 11 8 18 -4 30 -21
20 -44 21 -51 1z"/>
<path d="M880 2154 c0 -44 41 -69 68 -42 20 20 14 48 -14 58 -41 16 -54 12
-54 -16z"/>
<path d="M1730 2146 c0 -13 9 -45 20 -70 22 -52 43 -58 79 -25 23 21 22 54 -3
74 -7 6 -15 18 -19 28 -4 12 -17 17 -42 17 -30 0 -35 -3 -35 -24z"/>
<path d="M7437 2085 c-27 -25 -37 -43 -37 -65 0 -23 -6 -33 -24 -40 -33 -12
-92 -89 -101 -130 -4 -23 -22 -49 -50 -75 -72 -66 -105 -114 -105 -151 0 -28
4 -34 21 -34 34 0 61 19 54 40 -4 13 5 26 38 50 44 31 67 65 67 98 0 20 52 78
78 86 10 4 26 23 35 44 9 21 37 65 62 98 46 62 53 82 33 102 -19 19 -31 15
-71 -23z"/>
<path d="M968 2034 c-10 -17 1 -44 32 -84 33 -42 73 -54 84 -25 9 23 -4 72
-24 90 -20 18 -85 31 -92 19z"/>
<path d="M6869 1959 c-77 -56 -129 -119 -129 -158 0 -14 -7 -39 -15 -55 -8
-15 -15 -35 -15 -42 0 -23 28 -16 47 13 10 14 50 60 89 102 75 80 109 133 100
157 -8 22 -29 17 -77 -17z"/>
<path d="M1306 1955 c-21 -21 -9 -45 21 -45 13 0 21 -4 18 -10 -9 -15 -63 -12
-72 3 -12 21 -39 27 -58 13 -15 -11 -15 -13 4 -30 12 -11 21 -25 21 -32 0 -17
115 -155 152 -181 40 -28 96 -37 148 -23 61 17 60 6 -5 -31 -31 -17 -59 -38
-62 -45 -5 -13 103 -125 258 -270 95 -89 390 -317 427 -331 16 -6 71 -42 82
-53 11 -11 137 -89 175 -108 22 -11 94 -47 160 -80 169 -85 257 -122 410 -173
39 -13 75 -26 80 -30 6 -4 72 -23 148 -43 76 -21 150 -42 165 -47 49 -20 381
-68 502 -75 41 -2 98 -7 125 -11 69 -12 476 -6 577 7 278 38 498 80 523 102 5
4 18 8 30 8 30 0 97 26 109 42 8 10 26 13 59 10 28 -2 54 1 60 7 6 6 21 11 33
11 44 0 210 70 230 98 7 10 19 13 37 8 21 -5 51 6 134 49 60 30 113 59 118 63
6 4 53 29 107 55 116 58 125 66 108 107 -7 16 -16 30 -21 30 -5 0 -9 7 -9 15
0 17 23 11 59 -17 13 -10 34 -18 47 -18 28 0 89 53 82 72 -4 10 2 13 26 10 24
-2 39 4 64 28 19 16 32 35 30 42 -6 16 -90 58 -132 65 -43 7 -48 -8 -14 -44
19 -20 19 -23 4 -23 -14 0 -89 29 -117 46 -4 2 -44 -21 -90 -52 -96 -66 -251
-145 -481 -248 -31 -14 -59 -30 -63 -35 -3 -6 -14 -11 -24 -11 -10 0 -24 -6
-30 -14 -6 -7 -36 -16 -67 -19 -30 -3 -62 -11 -70 -18 -8 -7 -52 -27 -96 -46
-45 -18 -85 -38 -89 -45 -4 -6 -3 -22 2 -35 10 -27 -5 -31 -35 -8 -10 8 -23
12 -28 9 -4 -3 -15 1 -23 10 -12 11 -32 13 -92 10 -88 -6 -234 -30 -275 -46
-40 -15 -102 -20 -288 -23 -91 -2 -169 -4 -175 -6 -5 -1 -30 1 -55 4 -25 4
-88 4 -140 -1 -83 -8 -99 -6 -130 10 -22 11 -56 18 -92 18 -54 0 -211 26 -318
51 -25 6 -74 18 -110 25 -93 20 -433 126 -447 141 -7 6 -27 15 -45 18 -32 7
-400 186 -425 206 -22 19 -125 79 -134 79 -5 0 -9 4 -9 9 0 8 -47 41 -85 61
-66 34 -377 294 -540 452 -27 26 -59 48 -70 48 -15 0 -24 11 -33 41 -11 35
-79 130 -144 203 -48 53 -112 71 -142 41z"/>
<path d="M1539 1920 c-17 -11 6 -52 62 -111 30 -30 69 -64 87 -74 21 -13 32
-27 32 -42 0 -29 142 -170 285 -283 38 -30 79 -64 92 -76 12 -12 76 -57 140
-100 65 -43 124 -84 131 -91 7 -7 18 -13 24 -13 5 0 22 -9 38 -20 36 -26 142
-85 210 -117 30 -14 62 -29 70 -34 89 -51 258 -119 415 -169 39 -12 84 -28
102 -36 17 -8 40 -14 51 -14 11 0 51 -9 88 -20 38 -11 92 -27 119 -35 176 -53
476 -80 567 -53 35 10 41 10 49 -5 8 -14 31 -16 212 -11 111 3 227 9 257 13
30 5 81 9 112 10 32 0 68 7 80 15 13 8 37 17 55 21 43 9 60 30 42 51 -11 13
-23 15 -64 9 -27 -4 -70 -8 -95 -9 -112 -5 -229 -19 -277 -34 -37 -11 -59 -13
-74 -6 -20 9 -107 4 -183 -10 -17 -3 -36 0 -43 6 -13 10 -120 21 -358 34 -66
4 -122 11 -125 15 -5 7 -116 35 -185 46 -16 3 -43 11 -60 18 -16 7 -56 18 -87
24 -32 6 -87 22 -123 36 -36 15 -96 37 -133 49 -94 32 -274 106 -292 121 -8 7
-25 16 -36 19 -43 13 -326 176 -394 227 -19 14 -64 47 -100 73 -178 128 -325
262 -523 478 -74 79 -95 97 -123 100 -19 2 -39 1 -45 -2z"/>
<path d="M1098 1849 c-26 -15 -22 -27 20 -73 20 -23 48 -56 62 -74 19 -26 35
-35 66 -39 50 -6 65 10 35 38 -11 10 -25 19 -31 19 -5 0 -10 3 -11 8 0 4 -2
16 -3 28 -3 28 -79 104 -103 104 -10 0 -26 -5 -35 -11z"/>
<path d="M6617 1684 c-11 -12 13 -44 33 -44 23 0 24 4 10 31 -11 19 -31 25
-43 13z"/>
<path d="M1280 1597 c0 -20 239 -293 308 -351 7 -6 32 -29 56 -51 24 -22 76
-67 116 -100 40 -33 89 -75 110 -92 20 -18 42 -33 47 -33 6 0 16 -7 23 -14 14
-18 291 -203 317 -213 10 -3 44 -24 75 -45 31 -21 59 -38 62 -38 6 0 247 -113
279 -131 9 -5 38 -17 64 -25 26 -9 70 -26 98 -39 27 -12 66 -27 85 -33 19 -6
58 -18 85 -27 96 -31 251 -71 435 -114 113 -27 145 -31 248 -37 48 -2 103 -9
122 -16 43 -14 150 -19 480 -20 210 -1 286 2 429 21 109 14 187 29 210 40 20
10 68 22 106 25 106 11 267 49 290 68 5 4 17 8 27 8 10 0 26 9 35 20 12 14 30
20 58 20 72 0 230 59 310 115 17 12 52 27 80 34 27 7 57 18 65 25 8 8 31 19
50 25 20 6 53 26 74 43 22 18 64 41 95 51 30 10 68 28 83 40 15 12 42 33 59
46 21 17 29 30 25 43 -4 18 -1 19 27 14 25 -4 43 1 80 24 26 17 47 34 47 39 0
5 25 22 55 37 57 29 72 48 55 69 -21 25 -61 27 -84 6 -12 -12 -27 -21 -33 -21
-7 0 -20 -11 -31 -25 -11 -14 -35 -30 -54 -37 -42 -14 -68 -36 -68 -58 0 -13
-14 -21 -47 -29 -27 -7 -70 -27 -98 -45 -27 -18 -58 -35 -67 -39 -10 -3 -18
-11 -18 -17 0 -5 -6 -10 -13 -10 -22 0 -155 -69 -184 -96 -14 -13 -38 -27 -52
-30 -51 -10 -196 -58 -199 -66 -2 -4 -9 -8 -15 -8 -7 0 -23 -6 -37 -13 -14 -7
-53 -23 -88 -36 -34 -13 -67 -33 -73 -43 -8 -15 -18 -19 -37 -15 -31 6 -227
-27 -245 -41 -12 -10 -147 -38 -252 -53 -33 -4 -87 -16 -120 -24 -49 -14 -335
-38 -395 -33 -47 3 -327 8 -395 8 -44 -1 -94 4 -110 10 -17 7 -65 13 -107 15
-43 2 -83 7 -90 11 -7 5 -38 11 -68 15 -79 9 -220 39 -255 54 -16 7 -49 15
-73 19 -47 7 -384 118 -429 141 -15 8 -34 15 -41 15 -7 0 -30 9 -50 20 -20 11
-84 43 -142 71 -92 45 -189 95 -270 140 -14 8 -50 31 -80 51 -30 21 -93 63
-140 95 -82 54 -112 77 -204 153 -23 19 -65 53 -92 75 -49 40 -183 163 -195
178 -34 46 -212 211 -244 227 -48 23 -75 26 -75 7z"/>
<path d="M6506 1583 c-67 -49 -181 -157 -184 -175 -3 -15 4 -18 38 -18 23 0
51 5 63 11 34 18 119 107 113 118 -4 5 6 11 20 13 35 4 53 31 38 56 -17 27
-46 25 -88 -5z"/>
<path d="M6712 1570 c-13 -6 -26 -19 -29 -29 -3 -12 -15 -21 -31 -23 -24 -3
-28 -9 -34 -50 -3 -26 -9 -51 -12 -56 -9 -15 23 -23 44 -12 18 10 18 8 5 -22
-9 -23 -21 -34 -39 -36 -14 -2 -26 -9 -26 -16 0 -9 -22 -15 -65 -19 -53 -5
-76 -14 -130 -48 -36 -23 -65 -45 -65 -49 0 -8 36 -26 70 -35 14 -4 40 -14 58
-22 31 -15 36 -14 79 8 48 24 93 74 93 102 0 11 8 17 25 17 14 0 29 8 35 21 6
11 20 23 30 27 54 21 170 164 170 210 0 22 -141 48 -178 32z"/>
<path d="M6919 1439 c-32 -34 -59 -68 -59 -75 0 -8 -7 -14 -16 -14 -23 0 -84
-64 -84 -88 0 -11 7 -23 16 -26 38 -14 63 -5 98 36 20 23 36 45 36 48 0 4 15
15 33 25 41 22 121 121 113 141 -3 8 -19 14 -42 14 -31 0 -44 -8 -95 -61z"/>
<path d="M6191 1330 c-37 -36 -40 -60 -7 -60 33 0 89 51 80 73 -9 26 -37 21
-73 -13z"/>
<path d="M6000 1192 c-8 -3 -17 -8 -20 -12 -3 -4 -32 -21 -65 -37 -73 -36
-216 -112 -230 -122 -5 -4 -29 -15 -52 -24 -106 -42 -128 -53 -151 -76 -18
-18 -30 -22 -53 -17 -37 7 -101 -17 -157 -59 -36 -28 -49 -32 -82 -28 -36 5
-128 -11 -160 -28 -8 -4 -31 -10 -51 -14 -46 -7 -72 -26 -64 -47 13 -32 123
-40 153 -10 10 10 61 26 125 39 60 13 115 30 123 38 9 9 34 15 62 15 47 0 122
28 153 56 9 8 54 28 99 44 45 16 90 36 99 44 9 8 37 25 61 36 25 12 61 32 79
46 19 14 40 23 46 20 6 -2 22 5 36 15 13 10 28 19 33 19 5 0 24 12 43 26 23
17 33 33 31 46 -3 23 -34 38 -58 30z"/>
<path d="M6631 1172 c-45 -38 -40 -66 12 -70 27 -2 45 3 67 20 32 26 37 43 16
64 -22 22 -58 16 -95 -14z"/>
</g>
</svg>
